<svg width="1421" height="853" viewBox="0 0 1421 853" fill="none" xmlns="http://www.w3.org/2000/svg">
<rect width="1421" height="853" fill="#E5E5E5"/>
<path d="M0 0H1421V853H0V0Z" fill="#959C9D"/>
<g filter="url(#filter0_d)">
<path fill-rule="evenodd" clip-rule="evenodd" d="M732.365 373.135C736.117 377.309 740.174 379.976 742.392 380.009C747.953 380.093 753.626 360.064 751.654 350.95C749.681 341.836 729.907 332.386 724.808 347.836C723.038 353.199 723.945 358.704 726.116 363.611L713.082 390.297L729.732 395.117L732.365 373.135Z" fill="#D4A181"/>
<path fill-rule="evenodd" clip-rule="evenodd" d="M755.557 344.065C754.545 347.996 750.812 350.366 747.102 349.515C744.834 349.594 742.017 349.318 738.981 348.667C738.973 349.906 738.793 351.263 738.411 352.745C738.074 354.054 737.58 355.403 736.966 356.739C736.53 355.737 735.803 354.955 734.925 354.701C732.471 353.99 730.211 355.637 729.625 357.912C728.882 360.798 729.914 363.341 732.164 364.172C729.016 367.779 725.345 370.118 722.492 369.292C717.073 367.723 715.201 358.921 717.33 350.657C717.404 350.367 717.484 350.08 717.568 349.797C715.39 350.601 713.24 351.859 711.073 353.127L711.073 353.127C706.47 355.82 701.798 358.554 696.64 357.061C686.322 354.073 687.912 330.804 702.329 334.979C712.133 337.818 716.565 340.731 720.143 344.177C721.595 341.963 723.376 340.263 725.275 339.266C725.756 338.934 726.428 338.677 727.256 338.498C727.766 338.369 728.281 338.292 728.795 338.27C731.553 338.019 735.361 338.381 739.455 339.405C740.22 339.596 740.965 339.803 741.688 340.024C742.744 335.973 746.691 333.588 750.516 334.695C754.348 335.805 756.604 340 755.557 344.065Z" fill="#191847"/>
<path fill-rule="evenodd" clip-rule="evenodd" d="M691.523 457.636L717.404 554.068L729.448 626.434L741.885 626.494L730.281 457.823L691.523 457.636Z" fill="#BA8B72"/>
<path fill-rule="evenodd" clip-rule="evenodd" d="M679.683 457.579C681.28 507.618 680.424 534.902 679.991 539.446C679.558 543.989 677.075 574.42 660.903 627.63L673.839 627.692C695.163 576.674 702.668 546.267 705.117 539.567C707.567 532.865 714.839 505.612 725.493 457.8L679.683 457.579Z" fill="#D4A181"/>
<path fill-rule="evenodd" clip-rule="evenodd" d="M690.957 457.634C697.65 490.805 709.248 543.76 725.75 616.498L743.941 616.585C745.644 542.016 740.164 492.906 730.435 457.824L690.957 457.634Z" fill="#69A1AC"/>
<path fill-rule="evenodd" clip-rule="evenodd" d="M679.591 457.579C681.15 507.617 676.248 556.883 661.505 616.968L680.914 617.061C702.274 566.806 717.645 517.833 728.278 457.813L679.591 457.579Z" fill="#89C5CC"/>
<path fill-rule="evenodd" clip-rule="evenodd" d="M659.011 637.54L659.726 626.249C659.755 625.781 660.186 625.463 660.618 625.563C666.847 627.019 675.494 623.886 675.494 623.886C684.16 630.463 696.706 633.505 701.032 634.402C701.846 634.571 702.361 635.445 702.131 636.29L701.111 640.031L675.416 639.907L660.428 639.835L659.011 637.54Z" fill="#191847"/>
<path fill-rule="evenodd" clip-rule="evenodd" d="M726.616 637.865L727.331 626.574C727.361 626.106 727.792 625.788 728.223 625.889C734.452 627.345 743.099 624.211 743.099 624.211C751.766 630.789 764.311 633.83 768.637 634.727C769.451 634.896 769.966 635.77 769.736 636.615L768.717 640.356L743.021 640.232L728.033 640.16L726.616 637.865Z" fill="#191847"/>
<path fill-rule="evenodd" clip-rule="evenodd" d="M770.18 405.449L743.176 415.002L750.479 427.073L771.292 413.165C781.165 412.222 785.809 411.037 785.223 409.61C784.731 408.407 783.633 408.234 782.622 408.075C781.834 407.951 781.098 407.836 780.742 407.248C779.93 405.905 782.543 402.257 785.162 398.907C787.782 395.557 785.608 395.475 784.304 395.779C779.853 397.864 775.145 401.088 770.18 405.449ZM791.449 430.219L779.584 434.434L778.233 446.04C778.233 446.04 786.137 442.031 792.453 441.408C800.506 440.613 803.904 439.477 808.516 435.133C810.983 432.809 813.616 427.69 812.012 425.549C811.396 424.729 808.395 425.812 805.333 426.918C802.999 427.76 800.629 428.616 799.253 428.651C797.401 428.697 798.031 426.283 798.533 424.354C798.894 422.969 799.189 421.833 798.456 422.038C795.289 421.488 791.449 430.219 791.449 430.219Z" fill="#D4A181"/>
<path fill-rule="evenodd" clip-rule="evenodd" d="M731.758 409.525C740.378 411.081 752.18 411.358 765.831 405.465L768.693 417.763C758.728 425.031 745.605 430.055 735.278 427.751C727.138 425.936 724.753 414.633 731.758 409.525Z" fill="#2026A2"/>
<path fill-rule="evenodd" clip-rule="evenodd" d="M695.222 482.99C687.237 480.288 679.9 477.805 675.287 477.879C673.235 459.702 679.24 449.659 684.782 440.388C688.122 434.8 691.295 429.493 692.436 422.854C695.758 403.521 715.484 376.571 717.637 376.985L718.255 377.103L735.318 380.382L737.272 380.757C736.102 392.89 737.632 406.565 739.172 420.327C739.532 423.541 739.892 426.76 740.218 429.965C753.9 436.143 787.633 430.269 787.633 430.269C787.633 430.269 792.627 449.362 790.745 456.722C770.553 463.4 753.966 464.92 740.892 462.719C739.903 470.996 737.628 478.616 733.249 485.137C727.381 493.874 710.167 488.048 695.222 482.99Z" fill="#1F28CF"/>
</g>
<defs>
<filter id="filter0_d" x="655" y="334.142" width="161.654" height="314.219" filterUnits="userSpaceOnUse" color-interpolation-filters="sRGB">
<feFlood flood-opacity="0" result="BackgroundImageFix"/>
<feColorMatrix in="SourceAlpha" type="matrix" values="0 0 0 0 0 0 0 0 0 0 0 0 0 0 0 0 0 0 127 0"/>
<feOffset dy="4"/>
<feGaussianBlur stdDeviation="2"/>
<feColorMatrix type="matrix" values="0 0 0 0 0 0 0 0 0 0 0 0 0 0 0 0 0 0 0.25 0"/>
<feBlend mode="normal" in2="BackgroundImageFix" result="effect1_dropShadow"/>
<feBlend mode="normal" in="SourceGraphic" in2="effect1_dropShadow" result="shape"/>
</filter>
</defs>
</svg>
